{
  "accessors": [
    {
      "bufferView": 0,
      "componentType": 5126,
      "count": 2460,
      "max": [
        2.75,
        0.9980267284282716,
        1.0
      ],
      "min": [
        -3.0,
        -0.9980267284282716,
        -1.0
      ],
      "type": "VEC3"
    },
    {
      "bufferView": 1,
      "componentType": 5125,
      "count": 14736,
      "type": "SCALAR"
    }
  ],
  "asset": {
    "generator": "Geometry",
    "version": "2.0"
  },
  "bufferViews": [
    {
      "buffer": 0,
      "byteLength": 118080,
      "byteStride": 48,
      "target": 34962
    },
    {
      "buffer": 0,
      "byteLength": 58944,
      "byteOffset": 118080,
      "target": 34963
    }
  ],
  "buffers": [
    {
      "byteLength": 177024,
      "uri": "data:application/octet-stream;base64,"
    }
  ],
  "materials": [
    {
      "extras": null
    }
  ],
  "meshes": [
    {
      "primitives": [
        {
          "attributes": {
            "POSITION": 0
          },
          "indices": 1,
          "material": 0,
          "mode": 4
        }
      ]
    }
  ],
  "nodes": [
    {
      "matrix": [
        0.9999999403953552,
        0.0,
        0.0,
        0.0,
        0.0,
        -4.371138828673793e-08,
        -1.0,
        0.0,
        0.0,
        1.0,
        -4.371138828673793e-08,
        0.0,
        0.0,
        0.0,
        0.0,
        1.0
      ],
      "mesh": 0
    }
  ],
  "scene": 0,
  "scenes": [
    {
      "nodes": [
        0
      ]
    }
  ]
}
